<?xml version="1.0" encoding="utf-8"?>
<!-- Generated by IcoMoon.io -->
<!DOCTYPE svg PUBLIC "-//W3C//DTD SVG 1.1//EN" "http://www.w3.org/Graphics/SVG/1.1/DTD/svg11.dtd">
<svg version="1.1" xmlns="http://www.w3.org/2000/svg" xmlns:xlink="http://www.w3.org/1999/xlink" width="32" height="32" viewBox="0 0 32 32">
<path fill="#444444" d="M26.652 23.233c-2.152 3.163-5.675 5.317-9.715 5.608v-2.508c2.417-0.215 4.662-1.26 6.399-2.997 0.424-0.424 0.806-0.878 1.145-1.357l2.171 1.253zM26.375 16c0 1.53-0.329 3.009-0.954 4.357l2.17 1.253c0.822-1.696 1.284-3.599 1.284-5.61s-0.461-3.914-1.283-5.61l-2.17 1.253c0.624 1.348 0.954 2.827 0.954 4.357zM16.938 5.667c2.417 0.215 4.662 1.26 6.399 2.997 0.424 0.424 0.806 0.878 1.145 1.357l2.171-1.253c-2.152-3.163-5.675-5.317-9.715-5.608v2.508zM5.625 16c0-1.53 0.33-3.009 0.954-4.357l-2.17-1.253c-0.822 1.696-1.284 3.599-1.284 5.61s0.461 3.914 1.284 5.61l2.17-1.253c-0.624-1.348-0.954-2.827-0.954-4.357zM7.518 10.021c0.339-0.479 0.722-0.933 1.145-1.357 1.737-1.737 3.981-2.781 6.399-2.997v-2.508c-4.040 0.291-7.563 2.445-9.715 5.608l2.171 1.253zM15.063 26.333c-2.417-0.215-4.662-1.26-6.399-2.997-0.424-0.424-0.806-0.878-1.145-1.357l-2.171 1.253c2.152 3.163 5.675 5.317 9.715 5.608v-2.508z"></path>
</svg>
