<?xml version="1.0" encoding="utf-8"?>
<!-- Generated by IcoMoon.io -->
<!DOCTYPE svg PUBLIC "-//W3C//DTD SVG 1.1//EN" "http://www.w3.org/Graphics/SVG/1.1/DTD/svg11.dtd">
<svg version="1.1" xmlns="http://www.w3.org/2000/svg" xmlns:xlink="http://www.w3.org/1999/xlink" width="32" height="32" viewBox="0 0 32 32">
<path fill="#444444" d="M28.8 0h-25.6c-1.76 0-3.2 1.44-3.2 3.2v25.6c0 1.76 1.44 3.2 3.2 3.2h25.6c1.76 0 3.2-1.44 3.2-3.2v-25.6c0-1.76-1.44-3.2-3.2-3.2v0zM17.6 22.72c-1.28 0-2.56-0.48-3.36-1.44l-1.6 5.12-0.16 0.32c-0.32 0.48-0.8 0.8-1.44 0.8-0.96 0-1.76-0.8-1.76-1.76v-0.16l0.16-0.32 2.88-8.96c0 0-0.32-0.96-0.32-2.4 0-2.72 1.44-3.52 2.72-3.52 1.12 0 2.24 0.48 2.24 2.080 0 2.080-1.44 3.2-1.44 4.8 0 1.12 0.96 2.080 2.080 2.080 3.68 0 5.12-2.88 5.12-5.44 0-3.52-3.040-6.4-6.72-6.4s-6.72 2.88-6.72 6.4c0 1.12 0.32 2.080 0.8 3.040 0.16 0.32 0.16 0.48 0.16 0.8 0 0.96-0.64 1.6-1.6 1.6-0.64 0-1.12-0.32-1.44-0.8-0.8-1.44-1.28-3.040-1.28-4.8 0-5.28 4.48-9.6 9.92-9.6s9.92 4.32 9.92 9.6c0.16 4.48-2.4 8.96-8.16 8.96v0z"></path>
</svg>
