<?xml version="1.0" encoding="utf-8"?>
<!-- Generated by IcoMoon.io -->
<!DOCTYPE svg PUBLIC "-//W3C//DTD SVG 1.1//EN" "http://www.w3.org/Graphics/SVG/1.1/DTD/svg11.dtd">
<svg version="1.1" xmlns="http://www.w3.org/2000/svg" xmlns:xlink="http://www.w3.org/1999/xlink" width="32" height="32" viewBox="0 0 32 32">
<path fill="#444444" d="M28.8 0h-25.6c-1.76 0-3.2 1.44-3.2 3.2v25.6c0 1.76 1.44 3.2 3.2 3.2h25.6c1.76 0 3.2-1.44 3.2-3.2v-25.6c0-1.76-1.44-3.2-3.2-3.2v0zM25.12 11.68c-0.16 7.36-4.8 12.48-11.84 12.8-2.88 0.16-4.96-0.8-6.88-1.92 2.080 0.32 4.8-0.48 6.24-1.76-2.080-0.16-3.36-1.28-4-3.040 0.64 0.16 1.28 0 1.76 0-1.92-0.64-3.2-1.76-3.36-4.32 0.48 0.32 1.12 0.48 1.76 0.48-1.44-0.8-2.4-3.84-1.28-5.76 2.080 2.24 4.64 4.16 8.8 4.48-1.12-4.48 4.96-6.88 7.36-3.84 1.12-0.16 1.92-0.64 2.72-0.96-0.32 1.12-0.96 1.76-1.76 2.4 0.8-0.16 1.6-0.32 2.24-0.64-0.16 0.8-0.96 1.44-1.76 2.080v0z"></path>
</svg>
