<?xml version="1.0" encoding="utf-8"?>
<svg version="1.1" xmlns="http://www.w3.org/2000/svg" xmlns:xlink="http://www.w3.org/1999/xlink" width="32" height="32" viewBox="0 0 32 32">
<path fill="#444444" d="M16 32c-8.837 0-16-7.163-16-16s7.163-16 16-16c8.837 0 16 7.163 16 16s-7.163 16-16 16zM16 30.080c7.776 0 14.080-6.304 14.080-14.080s-6.304-14.080-14.080-14.080c-7.776 0-14.080 6.304-14.080 14.080s6.304 14.080 14.080 14.080zM15.797 13.155l0.031 0.526-0.509-0.064c-1.852-0.247-3.469-1.084-4.843-2.49l-0.671-0.698-0.173 0.515c-0.366 1.149-0.132 2.361 0.631 3.177 0.407 0.451 0.315 0.515-0.387 0.247-0.244-0.086-0.458-0.15-0.478-0.118-0.071 0.075 0.173 1.052 0.366 1.438 0.264 0.537 0.804 1.063 1.394 1.374l0.498 0.247-0.59 0.011c-0.57 0-0.59 0.011-0.529 0.236 0.203 0.698 1.007 1.438 1.902 1.76l0.631 0.225-0.549 0.343c-0.814 0.494-1.77 0.773-2.727 0.794-0.458 0.011-0.834 0.054-0.834 0.086 0 0.107 1.241 0.708 1.963 0.945 2.167 0.698 4.741 0.397 6.674-0.794 1.373-0.848 2.747-2.533 3.388-4.165 0.346-0.869 0.692-2.458 0.692-3.22 0-0.494 0.031-0.558 0.6-1.149 0.336-0.343 0.651-0.719 0.712-0.826 0.102-0.204 0.092-0.204-0.427-0.021-0.865 0.322-0.987 0.279-0.56-0.204 0.315-0.343 0.692-0.966 0.692-1.149 0-0.032-0.153 0.021-0.326 0.118-0.183 0.107-0.59 0.268-0.895 0.365l-0.549 0.182-0.498-0.354c-0.275-0.193-0.661-0.408-0.865-0.472-0.519-0.15-1.312-0.129-1.78 0.043-1.272 0.483-2.075 1.728-1.984 3.091 0 0-0.092-1.363 0 0z"></path>
</svg>
