<?xml version="1.0" encoding="utf-8"?>
<svg version="1.1" xmlns="http://www.w3.org/2000/svg" xmlns:xlink="http://www.w3.org/1999/xlink" width="32" height="32" viewBox="0 0 32 32">
<path fill="#444444" d="M16 0c8.837 0 16 7.163 16 16s-7.163 16-16 16c-8.837 0-16-7.163-16-16s7.163-16 16-16zM16 1.92c-7.776 0-14.080 6.304-14.080 14.080s6.304 14.080 14.080 14.080c7.776 0 14.080-6.304 14.080-14.080s-6.304-14.080-14.080-14.080zM23.009 22.086c-0.112 0.605-0.582 1.106-1.157 1.234-0.072 0.016-0.146 0.027-0.219 0.040h-11.266c-0.030-0.005-0.060-0.011-0.090-0.015-0.619-0.083-1.14-0.578-1.278-1.215-0.016-0.074-0.026-0.15-0.039-0.225v-11.81c0.005-0.028 0.010-0.055 0.014-0.082 0.089-0.661 0.55-1.186 1.174-1.335 0.067-0.016 0.136-0.026 0.204-0.038h11.297c0.026 0.005 0.052 0.011 0.079 0.014 0.639 0.091 1.16 0.603 1.283 1.263 0.012 0.064 0.020 0.129 0.030 0.194v11.778c-0.010 0.066-0.019 0.132-0.031 0.197zM10.483 21.183c0 0.313 0.26 0.583 0.559 0.583 3.304 0 6.608 0 9.912 0 0.303 0 0.561-0.269 0.561-0.585 0-2.176 0-4.351 0-6.527v-0.045h-1.344c0.19 0.634 0.248 1.279 0.174 1.936s-0.277 1.27-0.608 1.835c-0.33 0.566-0.759 1.034-1.283 1.407-1.359 0.968-3.148 1.053-4.59 0.207-0.729-0.427-1.301-1.023-1.7-1.791-0.595-1.146-0.69-2.348-0.341-3.595-0.446 0-0.89 0-1.34 0v0.040c0 2.178-0 4.357 0 6.535zM15.935 18.981c1.594 0.036 2.884-1.296 2.917-2.915 0.034-1.67-1.254-3.050-2.852-3.049-1.562-0.001-2.831 1.312-2.853 2.938-0.023 1.669 1.255 2.992 2.787 3.026zM21.515 11.828c0-0.465 0-0.93 0-1.394 0-0.333-0.252-0.599-0.571-0.599-0.443-0-0.887-0-1.33 0-0.318 0-0.571 0.266-0.571 0.6-0 0.461-0.001 0.921 0.002 1.382 0 0.069 0.013 0.14 0.034 0.205 0.080 0.245 0.294 0.396 0.558 0.397 0.214 0 0.428-0 0.642-0 0.232-0.003 0.464 0.002 0.696-0.004 0.298-0.008 0.541-0.275 0.541-0.587z"></path>
</svg>
