<?xml version="1.0" encoding="utf-8"?>
<svg version="1.1" xmlns="http://www.w3.org/2000/svg" xmlns:xlink="http://www.w3.org/1999/xlink" width="32" height="32" viewBox="0 0 32 32">
<path fill="#444444" d="M16 32c-8.837 0-16-7.163-16-16s7.163-16 16-16c8.837 0 16 7.163 16 16s-7.163 16-16 16zM16 30.080c7.776 0 14.080-6.304 14.080-14.080s-6.304-14.080-14.080-14.080c-7.776 0-14.080 6.304-14.080 14.080s6.304 14.080 14.080 14.080zM16.443 17.18l-0.781-0.606c-0.238-0.197-0.563-0.457-0.563-0.934 0-0.479 0.325-0.782 0.608-1.064 0.909-0.716 1.818-1.477 1.818-3.082 0-1.65-1.039-2.519-1.536-2.931h1.342l1.409-0.885h-4.268c-1.171 0-2.859 0.277-4.094 1.297-0.931 0.804-1.386 1.911-1.386 2.909 0 1.693 1.3 3.409 3.595 3.409 0.217 0 0.454-0.021 0.692-0.044-0.107 0.261-0.215 0.478-0.215 0.847 0 0.673 0.345 1.084 0.65 1.475-0.975 0.067-2.796 0.175-4.138 1-1.278 0.76-1.667 1.866-1.667 2.648 0 1.607 1.515 3.104 4.656 3.104 3.725 0 5.698-2.061 5.698-4.102 0-1.499-0.866-2.237-1.819-3.040v-0.001zM13.606 14.684c-1.864 0-2.708-2.409-2.708-3.863 0-0.566 0.107-1.151 0.476-1.607 0.347-0.435 0.952-0.717 1.518-0.717 1.797 0 2.728 2.431 2.728 3.994 0 0.391-0.043 1.084-0.541 1.585-0.348 0.347-0.932 0.606-1.473 0.606v0 0zM13.627 23.412c-2.317 0-3.812-1.108-3.812-2.65s1.386-2.062 1.863-2.235c0.909-0.306 2.079-0.349 2.275-0.349 0.216 0 0.325 0 0.497 0.022 1.647 1.172 2.362 1.757 2.362 2.866 0 1.344-1.105 2.345-3.185 2.345h-0.001zM21.913 14.65v-2.17h-1.072v2.17h-2.167v1.084h2.167v2.184h1.072v-2.184h2.178v-1.084h-2.178z"></path>
</svg>
