<?xml version="1.0" encoding="utf-8"?>
<svg version="1.1" xmlns="http://www.w3.org/2000/svg" xmlns:xlink="http://www.w3.org/1999/xlink" width="32" height="32" viewBox="0 0 32 32">
<path fill="#444444" d="M16 0c8.837 0 16 7.163 16 16s-7.163 16-16 16c-8.837 0-16-7.163-16-16s7.163-16 16-16zM16 1.92c-7.776 0-14.080 6.304-14.080 14.080s6.304 14.080 14.080 14.080c7.776 0 14.080-6.304 14.080-14.080s-6.304-14.080-14.080-14.080zM9.92 13.651c0 1.644 0.588 3.106 1.848 3.651 0.207 0.090 0.392 0.003 0.452-0.239 0.042-0.168 0.14-0.591 0.184-0.767 0.060-0.24 0.037-0.324-0.13-0.533-0.363-0.454-0.596-1.042-0.596-1.874 0-2.415 1.706-4.578 4.442-4.578 2.423 0 3.754 1.568 3.754 3.663 0 2.756-1.151 5.082-2.86 5.082-0.944 0-1.65-0.827-1.424-1.841 0.271-1.211 0.796-2.518 0.796-3.392 0-0.782-0.396-1.435-1.217-1.435-0.965 0-1.74 1.057-1.74 2.474 0 0.902 0.288 1.512 0.288 1.512s-0.987 4.432-1.161 5.208c-0.345 1.546-0.052 3.441-0.027 3.632 0.015 0.113 0.152 0.14 0.214 0.055 0.089-0.123 1.238-1.626 1.629-3.128 0.111-0.425 0.635-2.627 0.635-2.627 0.313 0.633 1.23 1.191 2.204 1.191 2.9 0 4.868-2.801 4.868-6.55 0-2.835-2.267-5.475-5.712-5.475-4.287 0-6.448 3.256-6.448 5.971z"></path>
</svg>
