<?xml version="1.0" encoding="utf-8"?>
<!-- Generated by IcoMoon.io -->
<!DOCTYPE svg PUBLIC "-//W3C//DTD SVG 1.1//EN" "http://www.w3.org/Graphics/SVG/1.1/DTD/svg11.dtd">
<svg version="1.1" xmlns="http://www.w3.org/2000/svg" xmlns:xlink="http://www.w3.org/1999/xlink" width="32" height="32" viewBox="0 0 32 32">
<path fill="#444444" d="M8.8 24.8c-4.8 0-8.8-4-8.8-8.8s4-8.8 8.8-8.8h16.8c3.52 0 6.4 2.88 6.4 6.4s-2.88 6.4-6.4 6.4h-13.6c-2.24 0-4-1.76-4-4s1.76-4 4-4h12v2.4h-12c-0.96 0-1.6 0.64-1.6 1.6s0.64 1.6 1.6 1.6h13.6c2.24 0 4-1.76 4-4s-1.76-4-4-4h-16.8c-3.52 0-6.4 2.88-6.4 6.4s2.88 6.4 6.4 6.4h15.2v2.4h-15.2z"></path>
</svg>
