<?xml version="1.0" encoding="utf-8"?>
<!-- Generated by IcoMoon.io -->
<!DOCTYPE svg PUBLIC "-//W3C//DTD SVG 1.1//EN" "http://www.w3.org/Graphics/SVG/1.1/DTD/svg11.dtd">
<svg version="1.1" xmlns="http://www.w3.org/2000/svg" xmlns:xlink="http://www.w3.org/1999/xlink" width="32" height="32" viewBox="0 0 32 32">
<path fill="#444444" d="M14.72 11.040c0-1.6-0.96-4.8-3.36-4.8-0.96 0-2.080 0.64-2.080 2.72 0 1.92 0.96 4.64 3.2 4.64 0 0 2.24-0.16 2.24-2.56v0zM13.76 18.88h-0.48c-0.48 0-1.92 0.16-2.88 0.48-1.12 0.32-2.4 1.12-2.4 2.72 0 1.76 1.6 3.52 4.8 3.52 2.4 0 3.84-1.6 3.84-3.2 0-1.12-0.8-1.92-2.88-3.52v0zM28.8 0h-25.6c-1.76 0-3.2 1.44-3.2 3.2v25.6c0 1.76 1.44 3.2 3.2 3.2h25.6c1.76 0 3.2-1.44 3.2-3.2v-25.6c0-1.76-1.44-3.2-3.2-3.2v0zM11.36 27.52c-4.48 0-6.56-2.56-6.56-4.8 0-0.8 0.16-2.56 2.4-3.84 1.28-0.8 2.88-1.28 4.96-1.44-0.32-0.32-0.48-0.8-0.48-1.6 0-0.32 0-0.48 0.16-0.8h-0.64c-3.2 0-5.12-2.4-5.12-4.8 0-2.72 2.080-5.76 6.56-5.76h6.72l-1.76 1.76h-1.12c0.64 0.64 1.44 1.76 1.44 3.52 0 2.24-1.12 3.36-2.56 4.32-0.32 0.16-0.64 0.64-0.64 1.12s0.32 0.8 0.64 0.96c0.16 0.16 0.48 0.32 0.8 0.48 1.28 0.96 3.040 2.080 3.040 4.64 0 2.88-2.080 6.24-7.84 6.24v0zM27.2 16h-3.2v3.2h-1.6v-3.2h-3.2v-1.6h3.2v-3.2h1.6v3.2h3.2v1.6z"></path>
</svg>
