<?xml version="1.0" encoding="utf-8"?>
<!-- Generated by IcoMoon.io -->
<!DOCTYPE svg PUBLIC "-//W3C//DTD SVG 1.1//EN" "http://www.w3.org/Graphics/SVG/1.1/DTD/svg11.dtd">
<svg version="1.1" xmlns="http://www.w3.org/2000/svg" xmlns:xlink="http://www.w3.org/1999/xlink" width="32" height="32" viewBox="0 0 32 32">
<path fill="#444444" d="M16 32c-8.837 0-16-7.163-16-16s7.163-16 16-16c8.837 0 16 7.163 16 16s-7.163 16-16 16zM16 30.080c7.776 0 14.080-6.304 14.080-14.080s-6.304-14.080-14.080-14.080c-7.776 0-14.080 6.304-14.080 14.080s6.304 14.080 14.080 14.080zM12.681 15.553l-4.681-3.596v8.277l4.681-4.681zM23.958 10.286h-15.903l7.945 6.103 7.958-6.103zM18.227 16.394l-2.228 1.709-2.231-1.714-5.749 5.749h15.951l-5.744-5.744zM19.315 15.56l4.685 4.685v-8.278l-4.685 3.593z"></path>
</svg>
