<?xml version="1.0" encoding="utf-8"?>
<svg version="1.1" xmlns="http://www.w3.org/2000/svg" xmlns:xlink="http://www.w3.org/1999/xlink" width="32" height="32" viewBox="0 0 32 32">
<path fill="#444444" d="M16 32c-8.837 0-16-7.163-16-16s7.163-16 16-16c8.837 0 16 7.163 16 16s-7.163 16-16 16zM16 30.080c7.776 0 14.080-6.304 14.080-14.080s-6.304-14.080-14.080-14.080c-7.776 0-14.080 6.304-14.080 14.080s6.304 14.080 14.080 14.080zM7.163 6.863c0 0 16.666-0.821 17.98 16.749h-3.366c0 0 0.658-12.807-14.614-13.957v-2.791h0.001zM7.163 12.693c0 0 9.77-0.329 11.658 10.918h-3.366c0 0-0.41-6.649-8.293-8.129v-2.789h0.001zM8.992 20.017c1.178 0 2.135 0.954 2.135 2.135 0 1.178-0.957 2.134-2.135 2.134-1.179 0-2.135-0.955-2.135-2.134 0-1.18 0.955-2.135 2.135-2.135v0z"></path>
</svg>
