<?xml version="1.0" encoding="utf-8"?>
<svg version="1.1" xmlns="http://www.w3.org/2000/svg" xmlns:xlink="http://www.w3.org/1999/xlink" width="32" height="32" viewBox="0 0 32 32">
<path fill="#444444" d="M1.135 3.394v0 25.211c0 1.246 1.012 2.259 2.259 2.259h25.211c1.246 0 2.259-1.012 2.259-2.259v-25.211c0-1.246-1.012-2.259-2.259-2.259h-25.211c-1.246 0-2.259 1.012-2.259 2.259v0zM0 3.394c0-1.875 1.522-3.394 3.394-3.394h25.211c1.875 0 3.394 1.522 3.394 3.394v25.211c0 1.875-1.522 3.394-3.394 3.394h-25.211c-1.875 0-3.394-1.522-3.394-3.394v-25.211z"></path>
</svg>
