<?xml version="1.0" encoding="utf-8"?>
<svg version="1.1" xmlns="http://www.w3.org/2000/svg" xmlns:xlink="http://www.w3.org/1999/xlink" width="32" height="32" viewBox="0 0 32 32">
<path fill="#444444" d="M16 32c-8.837 0-16-7.163-16-16s7.163-16 16-16c8.837 0 16 7.163 16 16s-7.163 16-16 16zM16 30.080c7.776 0 14.080-6.304 14.080-14.080s-6.304-14.080-14.080-14.080c-7.776 0-14.080 6.304-14.080 14.080s6.304 14.080 14.080 14.080zM11.702 23.481h-3.496v-10.445h3.496v10.445zM9.955 11.609h-0.023c-1.172 0-1.932-0.802-1.932-1.805 0-1.024 0.782-1.804 1.977-1.804s1.931 0.779 1.954 1.804c0 1.003-0.758 1.805-1.976 1.805h-0.001zM24.302 23.481h-3.494v-5.589c0-1.404-0.506-2.363-1.77-2.363-0.967 0-1.541 0.646-1.792 1.27-0.093 0.223-0.116 0.535-0.116 0.846v5.834h-3.493c0 0 0.046-9.466 0-10.445h3.494v1.481c0.464-0.711 1.293-1.726 3.149-1.726 2.3 0 4.025 1.492 4.025 4.701v5.989l-0.001 0.001zM17.107 14.549c0.006-0.010 0.014-0.022 0.022-0.033v0.033h-0.022z"></path>
</svg>
