<?xml version="1.0" encoding="utf-8"?>
<svg version="1.1" xmlns="http://www.w3.org/2000/svg" xmlns:xlink="http://www.w3.org/1999/xlink" width="32" height="32" viewBox="0 0 32 32">
<path fill="#444444" d="M16 32c-8.837 0-16-7.163-16-16s7.163-16 16-16c8.837 0 16 7.163 16 16s-7.163 16-16 16zM16 30.080c7.776 0 14.080-6.304 14.080-14.080s-6.304-14.080-14.080-14.080c-7.776 0-14.080 6.304-14.080 14.080s6.304 14.080 14.080 14.080zM17.161 23.040v-7.041h2.083l0.276-2.426h-2.359l0.004-1.214c0-0.633 0.064-0.972 1.038-0.972h1.302v-2.427h-2.083c-2.502 0-3.383 1.177-3.383 3.156v1.457h-1.56v2.426h1.56v7.041h3.122z"></path>
</svg>
