<?xml version="1.0" encoding="utf-8"?>
<svg version="1.1" xmlns="http://www.w3.org/2000/svg" xmlns:xlink="http://www.w3.org/1999/xlink" width="32" height="32" viewBox="0 0 32 32">
<path fill="#444444" d="M16 32c-8.837 0-16-7.163-16-16s7.163-16 16-16c8.837 0 16 7.163 16 16s-7.163 16-16 16zM16 30.080c7.776 0 14.080-6.304 14.080-14.080s-6.304-14.080-14.080-14.080c-7.776 0-14.080 6.304-14.080 14.080s6.304 14.080 14.080 14.080zM24.96 11.918c0 0-0.179-1.26-0.727-1.815-0.695-0.728-1.474-0.732-1.832-0.775-2.559-0.185-6.397-0.185-6.397-0.185h-0.008c0 0-3.838 0-6.397 0.185-0.357 0.043-1.137 0.046-1.832 0.775-0.548 0.555-0.727 1.815-0.727 1.815s-0.183 1.48-0.183 2.959v1.387c0 1.48 0.183 2.959 0.183 2.959s0.178 1.26 0.727 1.815c0.696 0.728 1.609 0.706 2.017 0.782 1.463 0.14 6.217 0.184 6.217 0.184s3.842-0.006 6.401-0.191c0.357-0.043 1.137-0.046 1.832-0.775 0.548-0.555 0.727-1.815 0.727-1.815s0.182-1.48 0.182-2.959v-1.387c0-1.48-0.182-2.959-0.182-2.959v0.001zM14.113 17.946l-0.001-5.138 4.941 2.578-4.94 2.56z"></path>
</svg>
