<?xml version="1.0" encoding="utf-8"?>
<svg version="1.1" xmlns="http://www.w3.org/2000/svg" xmlns:xlink="http://www.w3.org/1999/xlink" width="32" height="32" viewBox="0 0 32 32">
<path fill="#444444" d="M24.889 8.889c0-4.978-3.911-8.889-8.889-8.889s-8.889 3.911-8.889 8.889h-3.556c-1.956 0-3.556 1.6-3.556 3.556v16c0 1.956 1.6 3.556 3.556 3.556h24.889c1.956 0 3.556-1.6 3.556-3.556v-16c0-1.956-1.6-3.556-3.556-3.556h-3.556zM21.511 8.889l-11.008 0.004c-0.014-3.026 2.475-5.515 5.497-5.515s5.511 2.489 5.511 5.511zM5.346 28.444c-0.989 0-1.79-0.793-1.79-1.773v-12.453c0-0.979 0.8-1.773 1.79-1.773h21.309c0.989 0 1.79 0.793 1.79 1.773v12.453c0 0.979-0.8 1.773-1.79 1.773h-21.309z"></path>
</svg>
