<?xml version="1.0" encoding="utf-8"?>
<!-- Generated by IcoMoon.io -->
<!DOCTYPE svg PUBLIC "-//W3C//DTD SVG 1.1//EN" "http://www.w3.org/Graphics/SVG/1.1/DTD/svg11.dtd">
<svg version="1.1" xmlns="http://www.w3.org/2000/svg" xmlns:xlink="http://www.w3.org/1999/xlink" width="32" height="32" viewBox="0 0 32 32">
<path fill="#444444" d="M28.8 0h-25.6c-1.76 0-3.2 1.44-3.2 3.2v25.6c0 1.76 1.44 3.2 3.2 3.2h25.6c1.76 0 3.2-1.44 3.2-3.2v-25.6c0-1.76-1.44-3.2-3.2-3.2v0zM17.843 14.437c0.008-0.013 0.019-0.029 0.030-0.044v0.044h-0.030zM27.427 26.333h-4.654v-7.443c0-1.87-0.674-3.147-2.357-3.147-1.287 0-2.052 0.861-2.387 1.692-0.124 0.297-0.155 0.713-0.155 1.127v7.771h-4.653c0 0 0.061-12.607 0-13.912h4.654v1.972c0.618-0.947 1.722-2.299 4.193-2.299 3.063 0 5.36 1.987 5.36 6.262v7.977l-0.002 0.002zM8.318 10.521h-0.031c-1.561 0-2.573-1.068-2.573-2.404 0-1.363 1.042-2.402 2.634-2.402s2.572 1.038 2.603 2.402c0 1.337-1.010 2.404-2.632 2.404h-0.001zM10.645 26.333h-4.656v-13.912h4.656v13.912z"></path>
</svg>
