<?xml version="1.0" encoding="utf-8"?>
<svg version="1.1" xmlns="http://www.w3.org/2000/svg" xmlns:xlink="http://www.w3.org/1999/xlink" width="32" height="32" viewBox="0 0 32 32">
<path fill="#444444" d="M22.653 21.297l-0.581-0.581c1.936-2.13 3.098-5.034 3.098-8.132 0-6.97-5.615-12.585-12.585-12.585s-12.585 5.615-12.585 12.585c0 6.97 5.615 12.585 12.585 12.585 3.098 0 6.002-1.162 8.132-3.098l0.581 0.581v1.549l7.798 7.798 2.904-2.904-7.798-7.798h-1.549zM12.444 21.333c-4.938 0-8.889-3.951-8.889-8.889s3.951-8.889 8.889-8.889c4.938 0 8.889 3.951 8.889 8.889s-3.951 8.889-8.889 8.889v0z"></path>
</svg>
