<?xml version="1.0" encoding="utf-8"?>
<!-- Generated by IcoMoon.io -->
<!DOCTYPE svg PUBLIC "-//W3C//DTD SVG 1.1//EN" "http://www.w3.org/Graphics/SVG/1.1/DTD/svg11.dtd">
<svg version="1.1" xmlns="http://www.w3.org/2000/svg" xmlns:xlink="http://www.w3.org/1999/xlink" width="32" height="32" viewBox="0 0 32 32">
<path fill="#444444" d="M28.8 0h-25.6c-1.76 0-3.2 1.44-3.2 3.2v25.6c0 1.76 1.44 3.2 3.2 3.2h25.6c1.76 0 3.2-1.44 3.2-3.2v-25.6c0-1.76-1.44-3.2-3.2-3.2v0zM22.4 14.4h-4.8v6.24c0 1.12 0.16 1.76 1.76 1.76h3.040v4.8c0 0-1.6 0.16-3.36 0.16-4.16 0-6.24-2.56-6.24-5.44v-7.52h-3.2v-4.48c3.84-0.32 4.16-3.2 4.48-5.12h3.52v4.8h4.8v4.8z"></path>
</svg>
