<?xml version="1.0" encoding="utf-8"?>
<svg version="1.1" xmlns="http://www.w3.org/2000/svg" xmlns:xlink="http://www.w3.org/1999/xlink" width="32" height="32" viewBox="0 0 32 32">
<path fill="#444444" d="M16 32c-8.837 0-16-7.163-16-16s7.163-16 16-16c8.837 0 16 7.163 16 16s-7.163 16-16 16zM16 30.080c7.776 0 14.080-6.304 14.080-14.080s-6.304-14.080-14.080-14.080c-7.776 0-14.080 6.304-14.080 14.080s6.304 14.080 14.080 14.080zM18.651 20.097c-0.255 0.122-0.743 0.228-1.107 0.237-1.098 0.030-1.311-0.771-1.32-1.352v-4.269h2.754v-2.076h-2.744v-3.493h-2.009c-0.033 0-0.091 0.029-0.098 0.102-0.117 1.069-0.618 2.946-2.698 3.696v1.771h1.388v4.482c0 1.534 1.132 3.713 4.119 3.663 1.008-0.017 2.127-0.44 2.375-0.803l-0.66-1.956h-0z"></path>
</svg>
