<?xml version="1.0" encoding="utf-8"?>
<svg version="1.1" xmlns="http://www.w3.org/2000/svg" xmlns:xlink="http://www.w3.org/1999/xlink" width="32" height="32" viewBox="0 0 32 32">
<path fill="#444444" d="M16 32c-8.837 0-16-7.163-16-16s7.163-16 16-16c8.837 0 16 7.163 16 16s-7.163 16-16 16zM16 30.080c7.776 0 14.080-6.304 14.080-14.080s-6.304-14.080-14.080-14.080c-7.776 0-14.080 6.304-14.080 14.080s6.304 14.080 14.080 14.080zM16.964 14.369l1.206 0.668 1.905-0.642v-1.289c0-2.229-1.864-3.962-4.077-3.962-2.208 0-4.077 1.623-4.077 3.936v5.904c0 0.532-0.434 0.966-0.966 0.966s-0.966-0.434-0.966-0.966v-2.5h-3.132v2.537c0 2.255 1.827 4.087 4.087 4.087 2.239 0 4.056-1.796 4.087-4.030v-5.831c0-0.532 0.434-0.966 0.966-0.966s0.966 0.434 0.966 0.966v1.122l0.001 0.001zM22.012 16.483v2.621c0 0.532-0.434 0.966-0.966 0.966s-0.966-0.434-0.966-0.966v-2.568l-1.905 0.647-1.206-0.668v2.548c0.021 2.239 1.842 4.051 4.087 4.051 2.255 0 4.087-1.827 4.087-4.087v-2.537l-3.131-0.006z"></path>
</svg>
